Coordinates
version=1
nRows=13
nColumns=40
inDegrees=yes

Units are S.I. units (second, meters, Newtons, ...)
If the header above contains a line with 'inDegrees', this indicates whether rotational values are in degrees (yes) or radians (no).

endheader
time	pelvis_tilt	pelvis_list	pelvis_rotation	pelvis_tx	pelvis_ty	pelvis_tz	hip_flexion_r	hip_adduction_r	hip_rotation_r	knee_angle_r	knee_angle_r_beta	ankle_angle_r	subtalar_angle_r	mtp_angle_r	hip_flexion_l	hip_adduction_l	hip_rotation_l	knee_angle_l	knee_angle_l_beta	ankle_angle_l	subtalar_angle_l	mtp_angle_l	lumbar_extension	lumbar_bending	lumbar_rotation	arm_flex_r	arm_add_r	arm_rot_r	elbow_flex_r	pro_sup_r	wrist_flex_r	wrist_dev_r	arm_flex_l	arm_add_l	arm_rot_l	elbow_flex_l	pro_sup_l	wrist_flex_l	wrist_dev_l
      1.50000000	      7.67832279	     -7.00966270	     -0.94794634	     -0.26971563	      1.07207833	     -1.04561821	     32.26061753	      2.49998931	     -6.60507949	     21.28381298	      0.37147261	    -14.50332954	      0.00000000	      0.00000000	     -1.62017616	     -3.17147002	     -7.48066098	     13.43973051	      0.23456755	     -6.28824026	      0.00000000	      0.00000000	    -11.42398520	      3.67498147	      6.12033578	     57.52171098	    -29.98482655	     27.28827026	     52.32833186	     83.21370543	      0.00000000	      0.00000000	     64.75579405	    -32.57746911	     41.75521998	     46.35020736	     81.30943552	      0.00000000	      0.00000000
      1.50500000	      7.67089729	     -7.02877271	     -0.94493530	     -0.26986056	      1.07203083	     -1.04553724	     32.26974332	      2.52450179	     -6.61314120	     21.23206551	      0.37056945	    -14.55470944	      0.00000000	      0.00000000	     -1.53010036	     -3.20729860	     -7.44250177	     13.59627518	      0.23729977	     -6.23242433	      0.00000000	      0.00000000	    -11.44253050	      3.68427553	      6.18181159	     57.44018502	    -30.05261471	     27.07561876	     52.43703979	     83.46126402	      0.00000000	      0.00000000	     64.83092780	    -32.49453189	     41.74061608	     46.28859889	     81.80346068	      0.00000000	      0.00000000
      1.51000000	      7.65367168	     -7.02217266	     -0.97754680	     -0.26995170	      1.07197995	     -1.04542911	     32.30032148	      2.53993812	     -6.59367519	     21.22466449	      0.37044028	    -14.53358864	      0.00000000	      0.00000000	     -1.49059015	     -3.20036608	     -7.42451325	     13.63362861	      0.23795171	     -6.21133404	      0.00000000	      0.00000000	    -11.43968336	      3.66451214	      6.25003177	     57.38375858	    -30.09650258	     26.98625774	     52.49676391	     83.33940940	      0.00000000	      0.00000000	     64.89919758	    -32.43188883	     41.79379643	     46.21924351	     81.97139841	      0.00000000	      0.00000000
      1.51500000	      7.64587940	     -7.03846634	     -0.98986194	     -0.27000756	      1.07194149	     -1.04539043	     32.32076004	      2.55934776	     -6.62836316	     21.22200586	      0.37039388	    -14.55386154	      0.00000000	      0.00000000	     -1.44699944	     -3.21945623	     -7.41082312	     13.69746054	      0.23906579	     -6.18797421	      0.00000000	      0.00000000	    -11.44723046	      3.70743457	      6.18093580	     57.50127154	    -30.01575878	     27.14923559	     52.41409381	     83.24654121	      0.00000000	      0.00000000	     64.79002318	    -32.55628476	     41.57242431	     46.34293955	     82.24803298	      0.00000000	      0.00000000
      1.52000000	      7.62725149	     -7.00944425	     -0.98232500	     -0.27011236	      1.07183205	     -1.04534269	     32.36358234	      2.53146078	     -6.64603131	     21.23902526	      0.37069092	    -14.47969192	      0.00000000	      0.00000000	     -1.34901610	     -3.19955776	     -7.35309835	     13.84403702	      0.24162403	     -6.12877742	      0.00000000	      0.00000000	    -11.43407076	      3.65379524	      6.28382357	     57.38731028	    -30.15115932	     26.98730626	     52.49923257	     83.28808515	      0.00000000	      0.00000000	     65.02591558	    -32.41648157	     42.04740449	     46.16744083	     81.90138189	      0.00000000	      0.00000000
      1.52500000	      7.63010593	     -7.03703606	     -1.00589413	     -0.27022226	      1.07182033	     -1.04525189	     32.35192337	      2.57865536	     -6.63778186	     21.17170914	      0.36951603	    -14.57930649	      0.00000000	      0.00000000	     -1.30386674	     -3.23689706	     -7.36297285	     13.93048572	      0.24313284	     -6.09850605	      0.00000000	      0.00000000	    -11.46362935	      3.69072158	      6.28074412	     57.44148570	    -30.12396956	     27.02392744	     52.48662309	     83.31640472	      0.00000000	      0.00000000	     64.96839689	    -32.45483006	     41.83806631	     46.22352014	     82.01703826	      0.00000000	      0.00000000
      1.53000000	      7.60094948	     -7.02577328	     -1.02379275	     -0.27033953	      1.07169982	     -1.04518035	     32.39642723	      2.58308377	     -6.64630291	     21.15104931	      0.36915545	    -14.57082837	      0.00000000	      0.00000000	     -1.21155136	     -3.23097077	     -7.34137976	     14.04873663	      0.24519671	     -6.01882030	      0.00000000	      0.00000000	    -11.45424603	      3.69469261	      6.25599147	     57.53254656	    -30.07482313	     27.12203781	     52.40417884	     83.19656188	      0.00000000	      0.00000000	     64.92584726	    -32.52874739	     41.72142966	     46.30001607	     82.18908563	      0.00000000	      0.00000000
      1.53500000	      7.58767369	     -7.00213555	     -1.08307516	     -0.27049157	      1.07163587	     -1.04502320	     32.43224929	      2.59961565	     -6.60549426	     21.13713353	      0.36891257	    -14.63836024	      0.00000000	      0.00000000	     -1.15400801	     -3.21442701	     -7.37658062	     14.13247603	      0.24665824	     -6.00794080	      0.00000000	      0.00000000	    -11.46839646	      3.65412985	      6.33317185	     57.48586796	    -30.13912073	     27.07697995	     52.52388718	     83.19835382	      0.00000000	      0.00000000	     64.98360356	    -32.49786185	     41.77272649	     46.28789186	     82.22720383	      0.00000000	      0.00000000
      1.54000000	      7.58311027	     -6.99590198	     -1.11017708	     -0.27065886	      1.07154093	     -1.04491501	     32.45577951	      2.62028885	     -6.59569854	     21.11894957	      0.36859520	    -14.64914935	      0.00000000	      0.00000000	     -1.07477810	     -3.21682041	     -7.39044958	     14.27136203	      0.24908226	     -5.94392973	      0.00000000	      0.00000000	    -11.48904888	      3.65250671	      6.30556071	     57.60558749	    -30.05696284	     27.15521004	     52.39144640	     83.28457925	      0.00000000	      0.00000000	     65.00324423	    -32.58540951	     41.81825350	     46.31190174	     82.01970735	      0.00000000	      0.00000000
      1.54500000	      7.57103493	     -7.00767864	     -1.09746696	     -0.27076040	      1.07146242	     -1.04488283	     32.47144349	      2.63317454	     -6.62807887	     21.09823238	      0.36823362	    -14.64678181	      0.00000000	      0.00000000	     -1.00169608	     -3.23762541	     -7.29042852	     14.37592642	      0.25090725	     -5.90023389	      0.00000000	      0.00000000	    -11.49636466	      3.67360858	      6.30525191	     57.61626223	    -30.07960584	     27.14886446	     52.39861684	     83.30700180	      0.00000000	      0.00000000	     65.01818924	    -32.55380825	     41.78537415	     46.28110784	     81.97777233	      0.00000000	      0.00000000
      1.55000000	      7.55987842	     -6.99286436	     -1.12580623	     -0.27087974	      1.07134459	     -1.04483579	     32.50267747	      2.63642865	     -6.63438393	     21.08073167	      0.36792818	    -14.63520104	      0.00000000	      0.00000000	     -0.90866972	     -3.23000718	     -7.33132493	     14.54679742	      0.25388951	     -5.77529742	      0.00000000	      0.00000000	    -11.48968140	      3.66220021	      6.32939406	     57.67380118	    -30.09000899	     27.25530671	     52.32934897	     83.17021230	      0.00000000	      0.00000000	     65.07912811	    -32.58953058	     41.93440762	     46.27068823	     82.12889134	      0.00000000	      0.00000000
      1.55500000	      7.53410502	     -7.00388175	     -1.17943572	     -0.27103440	      1.07121393	     -1.04470231	     32.54335807	      2.68807507	     -6.62621200	     21.04730161	      0.36734471	    -14.67957926	      0.00000000	      0.00000000	     -0.80129137	     -3.25857077	     -7.37211194	     14.71459029	      0.25681805	     -5.71237857	      0.00000000	      0.00000000	    -11.49876665	      3.66315222	      6.40959366	     57.68056579	    -30.13892048	     27.21280036	     52.36085673	     83.19437595	      0.00000000	      0.00000000	     65.12433400	    -32.55735627	     41.93827319	     46.29446185	     82.10706640	      0.00000000	      0.00000000
      1.56000000	      7.55030609	     -6.95745934	     -1.22782249	     -0.27118718	      1.07113112	     -1.04465564	     32.53896541	      2.67397392	     -6.59012422	     21.02214663	      0.36690567	    -14.61128094	      0.00000000	      0.00000000	     -0.77356475	     -3.20364673	     -7.39067958	     14.79318954	      0.25818986	     -5.67580863	      0.00000000	      0.00000000	    -11.54130436	      3.63402302	      6.36446242	     57.81115441	    -30.04094316	     27.34744231	     52.25956297	     83.18332338	      0.00000000	      0.00000000	     65.05256525	    -32.66592487	     41.80662257	     46.37882073	     82.07868042	      0.00000000	      0.00000000
